<svg id="visual" viewBox="0 0 900 600" width="900" height="600" xmlns="http://www.w3.org/2000/svg" xmlns:xlink="http://www.w3.org/1999/xlink" version="1.1"><path d="M0 103L53 103L53 133L106 133L106 121L159 121L159 133L212 133L212 127L265 127L265 73L318 73L318 97L371 97L371 157L424 157L424 103L476 103L476 127L529 127L529 163L582 163L582 145L635 145L635 157L688 157L688 97L741 97L741 115L794 115L794 151L847 151L847 61L900 61L900 73L900 0L900 0L847 0L847 0L794 0L794 0L741 0L741 0L688 0L688 0L635 0L635 0L582 0L582 0L529 0L529 0L476 0L476 0L424 0L424 0L371 0L371 0L318 0L318 0L265 0L265 0L212 0L212 0L159 0L159 0L106 0L106 0L53 0L53 0L0 0Z" fill="#aeffae"></path><path d="M0 175L53 175L53 169L106 169L106 181L159 181L159 193L212 193L212 205L265 205L265 163L318 163L318 199L371 199L371 241L424 241L424 199L476 199L476 229L529 229L529 241L582 241L582 241L635 241L635 247L688 247L688 181L741 181L741 163L794 163L794 217L847 217L847 145L900 145L900 151L900 71L900 59L847 59L847 149L794 149L794 113L741 113L741 95L688 95L688 155L635 155L635 143L582 143L582 161L529 161L529 125L476 125L476 101L424 101L424 155L371 155L371 95L318 95L318 71L265 71L265 125L212 125L212 131L159 131L159 119L106 119L106 131L53 131L53 101L0 101Z" fill="#d4df76"></path><path d="M0 223L53 223L53 211L106 211L106 247L159 247L159 289L212 289L212 259L265 259L265 211L318 211L318 235L371 235L371 295L424 295L424 277L476 277L476 295L529 295L529 307L582 307L582 319L635 319L635 301L688 301L688 271L741 271L741 241L794 241L794 325L847 325L847 241L900 241L900 229L900 149L900 143L847 143L847 215L794 215L794 161L741 161L741 179L688 179L688 245L635 245L635 239L582 239L582 239L529 239L529 227L476 227L476 197L424 197L424 239L371 239L371 197L318 197L318 161L265 161L265 203L212 203L212 191L159 191L159 179L106 179L106 167L53 167L53 173L0 173Z" fill="#f3b95b"></path><path d="M0 325L53 325L53 325L106 325L106 493L159 493L159 367L212 367L212 379L265 379L265 313L318 313L318 493L371 493L371 379L424 379L424 379L476 379L476 505L529 505L529 517L582 517L582 397L635 397L635 379L688 379L688 409L741 409L741 475L794 475L794 469L847 469L847 415L900 415L900 451L900 227L900 239L847 239L847 323L794 323L794 239L741 239L741 269L688 269L688 299L635 299L635 317L582 317L582 305L529 305L529 293L476 293L476 275L424 275L424 293L371 293L371 233L318 233L318 209L265 209L265 257L212 257L212 287L159 287L159 245L106 245L106 209L53 209L53 221L0 221Z" fill="#ff9064"></path><path d="M0 601L53 601L53 601L106 601L106 601L159 601L159 601L212 601L212 601L265 601L265 601L318 601L318 601L371 601L371 601L424 601L424 601L476 601L476 601L529 601L529 601L582 601L582 601L635 601L635 601L688 601L688 601L741 601L741 601L794 601L794 601L847 601L847 601L900 601L900 601L900 449L900 413L847 413L847 467L794 467L794 473L741 473L741 407L688 407L688 377L635 377L635 395L582 395L582 515L529 515L529 503L476 503L476 377L424 377L424 377L371 377L371 491L318 491L318 311L265 311L265 377L212 377L212 365L159 365L159 491L106 491L106 323L53 323L53 323L0 323Z" fill="#ff6a83"></path></svg>